<svg width="203" height="36" viewBox="0 0 203 36" fill="none" xmlns="http://www.w3.org/2000/svg">
<path d="M15.048 3.32C17.64 3.32 19.848 3.736 21.672 4.568C23.496 5.4 24.888 6.6 25.848 8.168C26.808 9.736 27.288 11.64 27.288 13.88C27.288 16.12 26.808 18.024 25.848 19.592C24.888 21.16 23.496 22.36 21.672 23.192C19.848 24.024 17.64 24.44 15.048 24.44H8.76V35H0.504V3.32H15.048ZM13.752 18.248C15.48 18.248 16.776 17.896 17.64 17.192C18.536 16.456 18.984 15.352 18.984 13.88C18.984 12.408 18.536 11.32 17.64 10.616C16.776 9.88 15.48 9.512 13.752 9.512H8.76V18.248H13.752ZM42.6645 10.52C45.1925 10.52 47.4005 11.016 49.2885 12.008C51.2085 12.968 52.6965 14.392 53.7525 16.28C54.8405 18.136 55.3845 20.376 55.3845 23C55.3845 25.624 54.8405 27.88 53.7525 29.768C52.6965 31.624 51.2085 33.048 49.2885 34.04C47.4005 35 45.1925 35.48 42.6645 35.48C40.2005 35.48 38.0085 35 36.0885 34.04C34.1685 33.048 32.6645 31.624 31.5765 29.768C30.5205 27.88 29.9925 25.624 29.9925 23C29.9925 20.376 30.5205 18.136 31.5765 16.28C32.6645 14.392 34.1685 12.968 36.0885 12.008C38.0085 11.016 40.2005 10.52 42.6645 10.52ZM42.6645 16.328C41.7365 16.328 40.9365 16.552 40.2645 17C39.5925 17.448 39.0805 18.168 38.7285 19.16C38.3765 20.152 38.2005 21.432 38.2005 23C38.2005 24.568 38.3765 25.848 38.7285 26.84C39.0805 27.8 39.5925 28.52 40.2645 29C40.9365 29.448 41.7365 29.672 42.6645 29.672C43.6245 29.672 44.4405 29.448 45.1125 29C45.7845 28.52 46.2965 27.8 46.6485 26.84C47.0005 25.848 47.1765 24.568 47.1765 23C47.1765 21.432 47.0005 20.152 46.6485 19.16C46.2965 18.168 45.7845 17.448 45.1125 17C44.4405 16.552 43.6245 16.328 42.6645 16.328ZM59.9749 35V11H67.1749L67.5109 16.184C68.1189 14.392 69.0149 13 70.1989 12.008C71.4149 11.016 72.9509 10.52 74.8069 10.52C75.4149 10.52 75.9269 10.568 76.3429 10.664C76.7909 10.76 77.1429 10.888 77.3989 11.048L76.5829 17.768C76.2629 17.64 75.8469 17.544 75.3349 17.48C74.8549 17.384 74.2629 17.336 73.5589 17.336C72.5989 17.336 71.7029 17.544 70.8709 17.96C70.0389 18.376 69.3669 19 68.8549 19.832C68.3749 20.632 68.1349 21.656 68.1349 22.904V35H59.9749ZM90.0225 3.368V26.456C90.0225 27.608 90.2945 28.44 90.8385 28.952C91.4145 29.432 92.1985 29.672 93.1905 29.672C93.9585 29.672 94.6145 29.592 95.1585 29.432C95.7345 29.24 96.2465 28.968 96.6945 28.616L97.5585 33.656C96.7585 34.232 95.7505 34.68 94.5345 35C93.3185 35.32 92.0705 35.48 90.7905 35.48C88.9665 35.48 87.3825 35.224 86.0385 34.712C84.7265 34.2 83.7025 33.384 82.9665 32.264C82.2625 31.144 81.8945 29.656 81.8625 27.8V5.624L90.0225 3.368ZM97.1745 11V16.808H77.7345V11H97.1745ZM111.753 0.151999C113.065 0.151999 114.217 0.296 115.209 0.584C116.201 0.839998 116.937 1.144 117.417 1.496L116.601 6.584C116.249 6.36 115.849 6.184 115.401 6.056C114.953 5.928 114.393 5.864 113.721 5.864C112.601 5.864 111.673 6.12 110.937 6.632C110.233 7.144 109.881 8.04 109.881 9.32V12.44L110.361 13.784V35H102.201V8.792C102.201 7.256 102.441 5.944 102.921 4.856C103.433 3.768 104.137 2.872 105.033 2.168C105.929 1.464 106.953 0.951999 108.105 0.631999C109.257 0.311999 110.473 0.151999 111.753 0.151999ZM117.177 11V16.808H98.3606V11H117.177ZM131.68 10.52C134.208 10.52 136.416 11.016 138.304 12.008C140.224 12.968 141.712 14.392 142.768 16.28C143.856 18.136 144.4 20.376 144.4 23C144.4 25.624 143.856 27.88 142.768 29.768C141.712 31.624 140.224 33.048 138.304 34.04C136.416 35 134.208 35.48 131.68 35.48C129.216 35.48 127.024 35 125.104 34.04C123.184 33.048 121.68 31.624 120.592 29.768C119.536 27.88 119.008 25.624 119.008 23C119.008 20.376 119.536 18.136 120.592 16.28C121.68 14.392 123.184 12.968 125.104 12.008C127.024 11.016 129.216 10.52 131.68 10.52ZM131.68 16.328C130.752 16.328 129.952 16.552 129.28 17C128.608 17.448 128.096 18.168 127.744 19.16C127.392 20.152 127.216 21.432 127.216 23C127.216 24.568 127.392 25.848 127.744 26.84C128.096 27.8 128.608 28.52 129.28 29C129.952 29.448 130.752 29.672 131.68 29.672C132.64 29.672 133.456 29.448 134.128 29C134.8 28.52 135.312 27.8 135.664 26.84C136.016 25.848 136.192 24.568 136.192 23C136.192 21.432 136.016 20.152 135.664 19.16C135.312 18.168 134.8 17.448 134.128 17C133.456 16.552 132.64 16.328 131.68 16.328ZM157.055 0.823999V26.84C157.055 27.896 157.231 28.648 157.583 29.096C157.935 29.544 158.527 29.768 159.359 29.768C159.839 29.768 160.239 29.736 160.559 29.672C160.879 29.608 161.263 29.512 161.711 29.384L161.183 34.28C160.607 34.632 159.855 34.92 158.927 35.144C157.999 35.368 157.087 35.48 156.191 35.48C153.631 35.48 151.775 34.888 150.623 33.704C149.471 32.52 148.895 30.584 148.895 27.896V0.823999H157.055ZM168.774 8.216C167.11 8.216 165.894 7.912 165.126 7.304C164.39 6.664 164.022 5.672 164.022 4.328C164.022 2.952 164.39 1.96 165.126 1.352C165.894 0.711999 167.11 0.391999 168.774 0.391999C170.406 0.391999 171.606 0.711999 172.374 1.352C173.142 1.96 173.526 2.952 173.526 4.328C173.526 5.672 173.142 6.664 172.374 7.304C171.606 7.912 170.406 8.216 168.774 8.216ZM172.854 11V35H164.694V11H172.854ZM190.086 10.52C192.614 10.52 194.822 11.016 196.71 12.008C198.63 12.968 200.118 14.392 201.174 16.28C202.262 18.136 202.806 20.376 202.806 23C202.806 25.624 202.262 27.88 201.174 29.768C200.118 31.624 198.63 33.048 196.71 34.04C194.822 35 192.614 35.48 190.086 35.48C187.622 35.48 185.43 35 183.51 34.04C181.59 33.048 180.086 31.624 178.998 29.768C177.942 27.88 177.414 25.624 177.414 23C177.414 20.376 177.942 18.136 178.998 16.28C180.086 14.392 181.59 12.968 183.51 12.008C185.43 11.016 187.622 10.52 190.086 10.52ZM190.086 16.328C189.158 16.328 188.358 16.552 187.686 17C187.014 17.448 186.502 18.168 186.15 19.16C185.798 20.152 185.622 21.432 185.622 23C185.622 24.568 185.798 25.848 186.15 26.84C186.502 27.8 187.014 28.52 187.686 29C188.358 29.448 189.158 29.672 190.086 29.672C191.046 29.672 191.862 29.448 192.534 29C193.206 28.52 193.718 27.8 194.07 26.84C194.422 25.848 194.598 24.568 194.598 23C194.598 21.432 194.422 20.152 194.07 19.16C193.718 18.168 193.206 17.448 192.534 17C191.862 16.552 191.046 16.328 190.086 16.328Z" fill="black"/>
</svg>
